<?xml version="1.0" encoding="UTF-8" standalone="no"?>
<!-- Created with Inkscape (http://www.inkscape.org/) -->

<svg
   xmlns:dc="http://purl.org/dc/elements/1.1/"
   xmlns:cc="http://creativecommons.org/ns#"
   xmlns:rdf="http://www.w3.org/1999/02/22-rdf-syntax-ns#"
   xmlns:svg="http://www.w3.org/2000/svg"
   xmlns="http://www.w3.org/2000/svg"
   xmlns:sodipodi="http://sodipodi.sourceforge.net/DTD/sodipodi-0.dtd"
   xmlns:inkscape="http://www.inkscape.org/namespaces/inkscape"
   width="9.5740509cm"
   height="9.2855539cm"
   viewBox="0 0 339.23804 329.01568"
   id="svg4948"
   version="1.1"
   inkscape:version="0.91 r"
   sodipodi:docname="logo_white.svg"
   inkscape:export-filename="/home/cschreib/logo_sel.png"
   inkscape:export-xdpi="149.87234"
   inkscape:export-ydpi="149.87234">
  <defs
     id="defs4950" />
  <sodipodi:namedview
     id="base"
     pagecolor="#000000"
     bordercolor="#666666"
     borderopacity="1.0"
     inkscape:pageopacity="0"
     inkscape:pageshadow="2"
     inkscape:zoom="0.70710678"
     inkscape:cx="115.92092"
     inkscape:cy="259.24721"
     inkscape:document-units="px"
     inkscape:current-layer="layer1"
     showgrid="false"
     fit-margin-top="0"
     fit-margin-left="0"
     fit-margin-right="0"
     fit-margin-bottom="0"
     inkscape:window-width="1920"
     inkscape:window-height="1123"
     inkscape:window-x="0"
     inkscape:window-y="25"
     inkscape:window-maximized="1"
     units="cm" />
  <metadata
     id="metadata4953">
    <rdf:RDF>
      <cc:Work
         rdf:about="">
        <dc:format>image/svg+xml</dc:format>
        <dc:type
           rdf:resource="http://purl.org/dc/dcmitype/StillImage" />
        <dc:title></dc:title>
      </cc:Work>
    </rdf:RDF>
  </metadata>
  <g
     inkscape:label="Layer 1"
     inkscape:groupmode="layer"
     id="layer1"
     transform="translate(-65.684157,-286.12948)">
    <path
       inkscape:export-ydpi="801.13214"
       inkscape:export-xdpi="801.13214"
       sodipodi:nodetypes="csccccccccccscccccccscccccccscc"
       d="m 390.46282,455.40642 c 0,0 7.02423,-21.04181 9.52663,-27.5144 4.39814,-11.37574 7.10609,-28.573 -8.29493,-38.93079 L 250.89704,292.46162 c -4.58613,-3.14289 -10.01464,-4.82719 -15.5743,-4.83216 l 0.002,-9e-5 c -12.80491,0.40192 -27.34563,13.66486 -27.34563,13.66486 l -0.26396,28.01031 z M 191.65249,522.30053 151.25776,494.24524 109.8575,368.43814 c 0,0 -17.469128,11.89006 -24.164838,16.2057 -11.59741,7.4749 -22.71811,18.13805 -16.95896,35.60993 l 33.016848,100.03845 c 1.87423,5.68014 5.5433,10.59747 10.45464,14.0115 l 78.90264,54.80033 z m 87.98973,-20.51048 63.95825,42.82879 c 0,0 16.46856,-9.68023 22.37799,-17.63487 4.12038,-5.54633 9.91495,-27.22431 9.91495,-27.22431 -30.36206,-20.58729 -63.92662,-42.71907 -95.74773,-64.2842 z m -16.72764,-114.2223 -55.17145,-37.6155 -4.6e-4,250.70644 11.90018,8.26513 c 10.82409,6.47746 22.07981,5.89647 30.66281,0.7689 5.18276,-3.09627 12.59751,-8.74404 12.59751,-8.74404 z"
       style="color:#000000;font-style:normal;font-variant:normal;font-weight:normal;font-stretch:normal;font-size:medium;line-height:normal;font-family:sans-serif;text-indent:0;text-align:start;text-decoration:none;text-decoration-line:none;text-decoration-style:solid;text-decoration-color:#000000;letter-spacing:normal;word-spacing:normal;text-transform:none;direction:ltr;block-progression:tb;writing-mode:lr-tb;baseline-shift:baseline;text-anchor:start;white-space:normal;clip-rule:nonzero;display:inline;overflow:visible;visibility:visible;opacity:1;isolation:auto;mix-blend-mode:normal;color-interpolation:sRGB;color-interpolation-filters:linearRGB;solid-color:#000000;solid-opacity:1;fill:#ffffff;fill-opacity:1;fill-rule:evenodd;stroke:#858585;stroke-width:3.00000024;stroke-linecap:round;stroke-linejoin:miter;stroke-miterlimit:4;stroke-dasharray:none;stroke-dashoffset:0;stroke-opacity:1;color-rendering:auto;image-rendering:auto;shape-rendering:auto;text-rendering:auto;enable-background:accumulate"
       id="path7478"
       inkscape:connector-curvature="0" />
  </g>
</svg>
