<?xml version="1.0" encoding="UTF-8" standalone="no"?>
<!-- Created with Inkscape (http://www.inkscape.org/) -->

<svg
   xmlns:dc="http://purl.org/dc/elements/1.1/"
   xmlns:cc="http://creativecommons.org/ns#"
   xmlns:rdf="http://www.w3.org/1999/02/22-rdf-syntax-ns#"
   xmlns:svg="http://www.w3.org/2000/svg"
   xmlns="http://www.w3.org/2000/svg"
   xmlns:sodipodi="http://sodipodi.sourceforge.net/DTD/sodipodi-0.dtd"
   xmlns:inkscape="http://www.inkscape.org/namespaces/inkscape"
   width="21.06863cm"
   height="9.2855549cm"
   viewBox="0 0 746.5263 329.01571"
   id="svg4948"
   version="1.1"
   inkscape:version="0.91 r"
   sodipodi:docname="icon_black_text.svg"
   inkscape:export-filename="/home/cschreib/logo_sel.png"
   inkscape:export-xdpi="149.87234"
   inkscape:export-ydpi="149.87234">
  <defs
     id="defs4950" />
  <sodipodi:namedview
     id="base"
     pagecolor="#ffffff"
     bordercolor="#666666"
     borderopacity="1.0"
     inkscape:pageopacity="0.0"
     inkscape:pageshadow="2"
     inkscape:zoom="0.70710678"
     inkscape:cx="578.61703"
     inkscape:cy="136.08025"
     inkscape:document-units="px"
     inkscape:current-layer="layer1"
     showgrid="false"
     fit-margin-top="0"
     fit-margin-left="0"
     fit-margin-right="0"
     fit-margin-bottom="0"
     inkscape:window-width="1920"
     inkscape:window-height="1123"
     inkscape:window-x="0"
     inkscape:window-y="25"
     inkscape:window-maximized="1"
     units="cm" />
  <metadata
     id="metadata4953">
    <rdf:RDF>
      <cc:Work
         rdf:about="">
        <dc:format>image/svg+xml</dc:format>
        <dc:type
           rdf:resource="http://purl.org/dc/dcmitype/StillImage" />
        <dc:title></dc:title>
      </cc:Work>
    </rdf:RDF>
  </metadata>
  <g
     inkscape:label="Layer 1"
     inkscape:groupmode="layer"
     id="layer1"
     transform="translate(-65.684157,-286.12946)">
    <path
       inkscape:export-ydpi="801.13214"
       inkscape:export-xdpi="801.13214"
       sodipodi:nodetypes="csccccccccccscccccccscccccccscc"
       d="m 390.46282,455.40642 c 0,0 7.02423,-21.04181 9.52663,-27.5144 4.39814,-11.37574 7.10609,-28.573 -8.29493,-38.93079 L 250.89704,292.46162 c -4.58613,-3.14289 -10.01464,-4.82719 -15.5743,-4.83216 l 0.002,-9e-5 c -12.80491,0.40192 -27.34563,13.66486 -27.34563,13.66486 l -0.26396,28.01031 z M 191.65249,522.30053 151.25776,494.24524 109.8575,368.43814 c 0,0 -17.469128,11.89006 -24.164838,16.2057 -11.59741,7.4749 -22.71811,18.13805 -16.95896,35.60993 l 33.016848,100.03845 c 1.87423,5.68014 5.5433,10.59747 10.45464,14.0115 l 78.90264,54.80033 z m 87.98973,-20.51048 63.95825,42.82879 c 0,0 16.46856,-9.68023 22.37799,-17.63487 4.12038,-5.54633 9.91495,-27.22431 9.91495,-27.22431 -30.36206,-20.58729 -63.92662,-42.71907 -95.74773,-64.2842 z m -16.72764,-114.2223 -55.17145,-37.6155 -4.6e-4,250.70644 11.90018,8.26513 c 10.82409,6.47746 22.07981,5.89647 30.66281,0.7689 5.18276,-3.09627 12.59751,-8.74404 12.59751,-8.74404 z"
       style="color:#000000;font-style:normal;font-variant:normal;font-weight:normal;font-stretch:normal;font-size:medium;line-height:normal;font-family:sans-serif;text-indent:0;text-align:start;text-decoration:none;text-decoration-line:none;text-decoration-style:solid;text-decoration-color:#000000;letter-spacing:normal;word-spacing:normal;text-transform:none;direction:ltr;block-progression:tb;writing-mode:lr-tb;baseline-shift:baseline;text-anchor:start;white-space:normal;clip-rule:nonzero;display:inline;overflow:visible;visibility:visible;opacity:1;isolation:auto;mix-blend-mode:normal;color-interpolation:sRGB;color-interpolation-filters:linearRGB;solid-color:#000000;solid-opacity:1;fill:#000000;fill-opacity:1;fill-rule:evenodd;stroke:#858585;stroke-width:3.00000024;stroke-linecap:round;stroke-linejoin:miter;stroke-miterlimit:4;stroke-dasharray:none;stroke-dashoffset:0;stroke-opacity:1;color-rendering:auto;image-rendering:auto;shape-rendering:auto;text-rendering:auto;enable-background:accumulate"
       id="path7478"
       inkscape:connector-curvature="0" />
    <g
       transform="matrix(0.89051196,0,0,1,116.56837,36.99239)"
       style="font-style:normal;font-weight:normal;font-size:12.5px;line-height:125%;font-family:Sans;letter-spacing:0px;word-spacing:0px;fill:#000000;fill-opacity:1;stroke:none;stroke-width:1px;stroke-linecap:butt;stroke-linejoin:miter;stroke-opacity:1"
       id="flowRoot4134">
      <path
         d="m 407.63574,364.12827 27.09961,0 c 11.47461,0 15.67969,10.48047 21.24024,33.69141 7.94723,31.62672 9.62274,38.3541 12.45117,52.00195 l 0.73242,0 c 11.47461,-53.22265 16.30468,-73.70898 21.24023,-79.83398 4.51661,-3.90625 8.667,-5.85938 12.45118,-5.85938 l 27.09961,0 c 5.7373,0 9.39941,3.66211 10.98632,10.98633 -13.67187,58.34961 -21.48437,89.11133 -23.4375,92.28516 -3.90625,5.37109 -9.52148,8.05664 -16.8457,8.05664 l -63.7207,0 c -13.22994,-1.09027 -17.85617,-7.52631 -20.50782,-19.04297 L 396.64941,375.1146 c 1.46485,-7.32422 5.12696,-10.98633 10.98633,-10.98633 z"
         style="font-style:normal;font-variant:normal;font-weight:normal;font-stretch:normal;font-size:375px;font-family:'COMPUTER Robot';-inkscape-font-specification:'COMPUTER Robot'"
         id="path4151"
         inkscape:connector-curvature="0"
         sodipodi:nodetypes="ssccccssccscccs" />
      <path
         d="m 571.69824,296.23765 28.56446,0 c 7.93457,0 12.3291,5.37109 13.18359,16.11328 l 0,13.24023 c 0,11.23047 -6.10352,16.84571 -18.31055,16.84571 l -16.11328,0 c -13.18359,0 -19.77539,-4.39453 -19.77539,-13.1836 l 0,-20.56445 c 1.46485,-8.30078 5.61524,-12.45117 12.45117,-12.45117 z m 1.46485,66.42578 24.16992,0 c 10.74219,0 16.11328,5.61523 16.11328,16.8457 l 0,78.36914 c 0,11.23047 -5.37109,16.8457 -16.11328,16.8457 l -24.16992,0 c -9.27735,-1.58691 -13.91602,-5.98144 -13.91602,-13.18359 l 0,-85.69336 c 0,-7.20215 4.63867,-11.59668 13.91602,-13.18359 z"
         style="font-style:normal;font-variant:normal;font-weight:normal;font-stretch:normal;font-size:375px;font-family:'COMPUTER Robot';-inkscape-font-specification:'COMPUTER Robot'"
         id="path4153"
         inkscape:connector-curvature="0"
         sodipodi:nodetypes="sscsssscscsssscssc" />
      <path
         d="m 660.32129,363.39585 108.39844,0 c 8.30078,1.09863 12.45117,5.24902 12.45117,12.45117 l 0,34.42383 c 0,10.74219 -6.10352,16.11328 -18.31055,16.11328 l -17.57812,0 c -12.20703,0 -18.31055,-4.63867 -18.31055,-13.91601 l 0,-25.63477 -41.01563,0 0,62.25586 28.56446,0 c 7.93457,0 12.88091,4.15395 13.05859,11.79101 0.17768,7.63706 -4.64453,13.1377 -13.05859,13.84375 l -28.56446,0 0,73.97461 c -1.83105,8.78907 -5.7373,13.1836 -11.71875,13.1836 l -29.29687,0 c -8.78906,-1.58691 -13.18359,-5.98145 -13.18359,-13.1836 l 0,-158.20312 c 6.83593,-18.06641 16.35742,-27.09961 28.56445,-27.09961 z"
         style="font-style:normal;font-variant:normal;font-weight:normal;font-stretch:normal;font-size:375px;font-family:'COMPUTER Robot';-inkscape-font-specification:'COMPUTER Robot'"
         id="path4155"
         inkscape:connector-curvature="0"
         sodipodi:nodetypes="scssssscccszcccscscs" />
    </g>
    <flowRoot
       xml:space="preserve"
       id="flowRoot4142"
       style="font-style:normal;font-weight:normal;font-size:12.5px;line-height:125%;font-family:Sans;letter-spacing:0px;word-spacing:0px;fill:#000000;fill-opacity:1;stroke:none;stroke-width:1px;stroke-linecap:butt;stroke-linejoin:miter;stroke-opacity:1"
       transform="translate(65.684157,286.12948)"><flowRegion
         id="flowRegion4144"><rect
           id="rect4146"
           width="804"
           height="48"
           x="48"
           y="95.015694" /></flowRegion><flowPara
         id="flowPara4148"></flowPara></flowRoot>  </g>
</svg>
